<svg xmlns="http://www.w3.org/2000/svg" viewBox="0 0 175.28 175.7"><defs><style>.cls-1{fill:#fff;}</style></defs><g id="Capa_2" data-name="Capa 2"><g id="x"><path class="cls-1" d="M12.05,81.85a75.83,75.83,0,0,1,151.18,0h12.05A87.84,87.84,0,0,0,0,81.85Z"/><path class="cls-1" d="M163.23,93.85a75.83,75.83,0,0,1-151.18,0H0a87.84,87.84,0,0,0,175.28,0Z"/><polygon class="cls-1" points="128.65 55.32 120.17 46.84 87.64 79.36 55.11 46.84 46.63 55.32 79.16 87.85 46.63 120.38 55.11 128.86 87.64 96.33 120.17 128.86 128.65 120.38 96.13 87.85 128.65 55.32"/></g></g></svg>