<svg xmlns="http://www.w3.org/2000/svg" viewBox="0 0 371.43 71.69"><g id="Capa_2" data-name="Capa 2"><g id="geo"><path d="M67.47,21H53.84a18.44,18.44,0,0,0-7.47-7.9,22.26,22.26,0,0,0-11-2.67,24,24,0,0,0-12.24,3.12,21.74,21.74,0,0,0-8.4,8.85,26.27,26.27,0,0,0-2.83,9.48A35.74,35.74,0,0,1,34.8,2.28h0A35.33,35.33,0,0,1,41.54.47h0A34.6,34.6,0,0,1,55,5.48,31.3,31.3,0,0,1,67.47,21Z" style="fill:#02b4c2"/><path d="M69.55,32.51v9a34.86,34.86,0,0,1-5.71,15A34.32,34.32,0,0,1,51.79,67.38,32,32,0,0,1,41.42,71h0a35.55,35.55,0,0,1-6.08.5,37.28,37.28,0,0,1-6.67-.58,34.52,34.52,0,0,0,6.15-1.7h0A35.76,35.76,0,0,0,56.35,46.35a1.54,1.54,0,0,1,0-.17c.07-.22.13-.45.2-.68.15-.53.3-1.09.42-1.65.16-.71.29-1.44.4-2.19h-26V32.51Z" style="fill:#02b4c2"/><path d="M56.35,46.35A35.76,35.76,0,0,1,34.81,69.17h0a34.52,34.52,0,0,1-6.15,1.7,34,34,0,0,1-11.14-4A33.74,33.74,0,0,1,4.73,54.14,35.92,35.92,0,0,1,0,35.73,36,36,0,0,1,4.73,17.31,33.73,33.73,0,0,1,17.56,4.58a34.74,34.74,0,0,1,11.12-4A38.05,38.05,0,0,1,35.32,0a40.62,40.62,0,0,1,6.22.47,35.33,35.33,0,0,0-6.73,1.81h0A35.74,35.74,0,0,0,11.85,31.92c-.08.65-.13,1.31-.16,2s0,1.22,0,1.84,0,1.24,0,1.84.08,1.32.16,2a26.65,26.65,0,0,0,2.83,9.53A21.71,21.71,0,0,0,23.08,58a23.91,23.91,0,0,0,12.24,3.11q9.26,0,15-5.23A21.31,21.31,0,0,0,56.35,46.35Z" style="fill:#1c1e3f"/><path d="M90.29,29.48a15.13,15.13,0,0,1,7.62-1.82v9.13H95.67q-5.19,0-7.86,2.63t-2.67,9.13V71H76.32V28.35h8.82v6.2A13.84,13.84,0,0,1,90.29,29.48Z" style="fill:#1c1e3f"/><path d="M105.76,38.11a19.48,19.48,0,0,1,17.45-10.45,18.68,18.68,0,0,1,8.79,2,18,18,0,0,1,6,4.92v-6.2h8.9V71H138V64.65a17.58,17.58,0,0,1-6.12,5A19.8,19.8,0,0,1,113,68.87a20.06,20.06,0,0,1-7.24-7.9,24.28,24.28,0,0,1-2.66-11.49A23.57,23.57,0,0,1,105.76,38.11ZM136.18,42A12.9,12.9,0,0,0,131.42,37a12.51,12.51,0,0,0-6.35-1.7A12.49,12.49,0,0,0,114,41.86a15.13,15.13,0,0,0-1.82,7.62A15.81,15.81,0,0,0,114,57.22a12.78,12.78,0,0,0,4.8,5.07,12.27,12.27,0,0,0,6.3,1.74,12.51,12.51,0,0,0,6.35-1.7,12.81,12.81,0,0,0,4.76-5,15.71,15.71,0,0,0,1.82-7.7A15.51,15.51,0,0,0,136.18,42Z" style="fill:#1c1e3f"/><path d="M176.38,35.55h-7.9V71h-8.89V35.55h-7.92v-7.2h7.92v-3q0-7.35,3.9-10.72t12.27-3.37V18.6c-2.68,0-4.57.51-5.65,1.51s-1.63,2.75-1.63,5.23v3h7.9Z" style="fill:#1c1e3f"/><path d="M184.66,21.08a5.43,5.43,0,0,1-1.63-4,5.55,5.55,0,0,1,5.65-5.65A5.4,5.4,0,0,1,192.63,13a5.5,5.5,0,0,1,1.62,4,5.63,5.63,0,0,1-9.59,4Z" style="fill:#02b4c2"/><rect x="184.19" y="28.35" width="8.82" height="42.64" style="fill:#1c1e3f"/><path d="M203.88,38.07a18.92,18.92,0,0,1,7.39-7.7,21.29,21.29,0,0,1,10.83-2.71q7.74,0,12.81,3.67a18.15,18.15,0,0,1,6.85,10.49h-9.52a10.11,10.11,0,0,0-3.72-5,10.93,10.93,0,0,0-6.42-1.78,10.67,10.67,0,0,0-8.63,3.83q-3.21,3.82-3.21,10.72t3.21,10.75a10.64,10.64,0,0,0,8.63,3.87c5.11,0,8.48-2.24,10.14-6.73h9.52a19,19,0,0,1-7,10.33,20.58,20.58,0,0,1-12.69,3.83,21,21,0,0,1-10.83-2.75,19.21,19.21,0,0,1-7.39-7.74,24.12,24.12,0,0,1-2.67-11.56A24.13,24.13,0,0,1,203.88,38.07Z" style="fill:#1c1e3f"/><path d="M249,38.11a19.48,19.48,0,0,1,17.45-10.45,18.71,18.71,0,0,1,8.79,2,17.83,17.83,0,0,1,6,4.92v-6.2h8.9V71h-8.9V64.65a17.45,17.45,0,0,1-6.11,5,19.8,19.8,0,0,1-18.88-.81A20.06,20.06,0,0,1,249,61a24.28,24.28,0,0,1-2.67-11.49A23.57,23.57,0,0,1,249,38.11ZM279.45,42A12.9,12.9,0,0,0,274.69,37a12.51,12.51,0,0,0-6.35-1.7A12.64,12.64,0,0,0,262,37a12.49,12.49,0,0,0-4.76,4.88,15.13,15.13,0,0,0-1.82,7.62,15.81,15.81,0,0,0,1.82,7.74A12.83,12.83,0,0,0,262,62.29,12.33,12.33,0,0,0,268.34,64a12.51,12.51,0,0,0,6.35-1.7,12.81,12.81,0,0,0,4.76-5,15.71,15.71,0,0,0,1.81-7.7A15.51,15.51,0,0,0,279.45,42Z" style="fill:#1c1e3f"/><path d="M314.66,29.48a15.13,15.13,0,0,1,7.62-1.82v9.13H320q-5.19,0-7.86,2.63t-2.67,9.13V71h-8.82V28.35h8.82v6.2A13.84,13.84,0,0,1,314.66,29.48Z" style="fill:#1c1e3f"/><path d="M330.25,17.21h9.6l-8.13,18.42h-6.19Z" style="fill:#1c1e3f"/><path d="M346.09,69.87a15.81,15.81,0,0,1-6.31-5,12.37,12.37,0,0,1-2.48-7h9.13a6.22,6.22,0,0,0,2.6,4.52A9.35,9.35,0,0,0,355,64.26a10,10,0,0,0,5.76-1.43,4.31,4.31,0,0,0,2.05-3.68,3.79,3.79,0,0,0-2.28-3.56A43.22,43.22,0,0,0,353.25,53a71.57,71.57,0,0,1-7.82-2.55,13.77,13.77,0,0,1-5.22-3.79A10,10,0,0,1,338,40a10.52,10.52,0,0,1,2-6.23,13.43,13.43,0,0,1,5.77-4.45,21.6,21.6,0,0,1,8.63-1.62q7.26,0,11.72,3.67a13.23,13.23,0,0,1,4.76,10h-8.82a6.33,6.33,0,0,0-2.32-4.57,8.73,8.73,0,0,0-5.65-1.7,9.21,9.21,0,0,0-5.34,1.31,4.08,4.08,0,0,0-1.86,3.49,3.76,3.76,0,0,0,1.24,2.86,8.83,8.83,0,0,0,3,1.82c1.18.44,2.94,1,5.26,1.66A57,57,0,0,1,364,48.75a14.21,14.21,0,0,1,5.15,3.75,9.94,9.94,0,0,1,2.24,6.58,11.05,11.05,0,0,1-2,6.5,13.39,13.39,0,0,1-5.69,4.49,21.26,21.26,0,0,1-8.63,1.62A21.48,21.48,0,0,1,346.09,69.87Z" style="fill:#1c1e3f"/></g></g></svg>