<svg xmlns="http://www.w3.org/2000/svg" viewBox="0 0 371.89 99.09"><defs><style>.cls-1{fill:#fff;}</style></defs><g id="Capa_2" data-name="Capa 2"><g id="geo"><path class="cls-1" d="M70.15,32.79v9A35.08,35.08,0,0,1,64.39,57,34.6,34.6,0,0,1,52.24,68a32.39,32.39,0,0,1-10.46,3.6h0a35.22,35.22,0,0,1-6.13.51,38,38,0,0,1-6.73-.59,35.35,35.35,0,0,0,6.19-1.71h0a36.14,36.14,0,0,0,21.74-23,1.54,1.54,0,0,1,0-.17c.07-.22.13-.45.2-.68.15-.55.3-1.11.42-1.67.16-.72.29-1.46.4-2.21H31.71V32.79Z"/><path class="cls-1" d="M23.1,70A35.9,35.9,0,0,0,45.79,59.61a24.43,24.43,0,0,1-10.16,2,24.11,24.11,0,0,1-12.35-3.15,21.81,21.81,0,0,1-8.47-9A26.63,26.63,0,0,1,12,39.88c-.08-.66-.13-1.32-.16-2s-.06-1.23-.06-1.85,0-1.25.06-1.86.08-1.33.16-2A36,36,0,0,1,35.09,2.3h0A36.07,36.07,0,0,1,41.9.47,41.38,41.38,0,0,0,35.63,0a38.74,38.74,0,0,0-6.7.58,35.13,35.13,0,0,0-11.22,4A34.16,34.16,0,0,0,4.77,17.46,36.35,36.35,0,0,0,0,36,36.34,36.34,0,0,0,4.77,54.61,34.17,34.17,0,0,0,17.66,67.45,33.8,33.8,0,0,0,23.1,70Z"/><path class="cls-1" d="M55.45,5.53a34.46,34.46,0,0,0-7.21-3.48A35.93,35.93,0,0,0,23.13,13.8l.15-.1a24.21,24.21,0,0,1,12.35-3.14,22.41,22.41,0,0,1,11.14,2.69,18.63,18.63,0,0,1,7.53,8H68.05A31.58,31.58,0,0,0,55.45,5.53Z"/><path class="cls-1" d="M206.08,85h2V99.09h-2Z"/><path class="cls-1" d="M233.54,99.09l0-10.28-5,8.57h-.91l-5-8.51V99.09H220.8V85h1.61l5.73,9.92L233.8,85h1.61l0,14.11Z"/><path class="cls-1" d="M257.75,86.29a5,5,0,0,1,0,7.22,6.27,6.27,0,0,1-4.2,1.31h-3.4v4.27h-2V85h5.36A6.27,6.27,0,0,1,257.75,86.29Zm-1.41,6a3.31,3.31,0,0,0,0-4.7,4.4,4.4,0,0,0-2.85-.81h-3.34v6.33h3.34A4.4,4.4,0,0,0,256.34,92.25Z"/><path class="cls-1" d="M280,99.09l-3-4.33-.86,0h-3.4v4.29h-2V85h5.36a6.27,6.27,0,0,1,4.2,1.31,4.51,4.51,0,0,1,1.53,3.61,4.74,4.74,0,0,1-.79,2.78,4.37,4.37,0,0,1-2.23,1.67l3.25,4.74Zm-1-6.83a3.32,3.32,0,0,0,0-4.71,4.35,4.35,0,0,0-2.84-.81h-3.34v6.35h3.34A4.3,4.3,0,0,0,279,92.26Z"/><path class="cls-1" d="M303.69,97.34v1.75h-10V85h9.69v1.76h-7.73v4.33h6.89v1.71h-6.89v4.56Z"/><path class="cls-1" d="M327.33,85V99.09h-1.61l-8.25-10.52V99.09h-2V85h1.61l8.24,10.52V85Z"/><path class="cls-1" d="M342.82,86.74h-4.71V85h11.36v1.76h-4.71V99.09h-1.94Z"/><path class="cls-1" d="M368.32,95.56H361l-1.52,3.53h-2L363.71,85h1.94l6.24,14.11h-2.06ZM367.63,94l-3-6.91-3,6.91Z"/><path class="cls-1" d="M90.75,29.48a15.13,15.13,0,0,1,7.62-1.82v9.13H96.13q-5.19,0-7.85,2.63t-2.67,9.13V71H76.78V28.35h8.83v6.2A13.74,13.74,0,0,1,90.75,29.48Z"/><path class="cls-1" d="M106.23,38.11a19.45,19.45,0,0,1,17.45-10.45,18.67,18.67,0,0,1,8.78,2,18,18,0,0,1,6,4.92v-6.2h8.9V71h-8.9V64.65a17.64,17.64,0,0,1-6.11,5,19.82,19.82,0,0,1-18.89-.81,20.11,20.11,0,0,1-7.23-7.9,24.28,24.28,0,0,1-2.67-11.49A23.57,23.57,0,0,1,106.23,38.11ZM136.64,42A12.83,12.83,0,0,0,131.88,37a12.48,12.48,0,0,0-6.34-1.7,12.49,12.49,0,0,0-11.11,6.54,15.24,15.24,0,0,0-1.82,7.62,15.92,15.92,0,0,0,1.82,7.74,12.78,12.78,0,0,0,4.8,5.07A12.3,12.3,0,0,0,125.54,64a12.48,12.48,0,0,0,6.34-1.7,12.74,12.74,0,0,0,4.76-5,15.71,15.71,0,0,0,1.82-7.7A15.51,15.51,0,0,0,136.64,42Z"/><path class="cls-1" d="M176.84,35.55H169V71h-8.9V35.55h-7.92v-7.2h7.92v-3q0-7.35,3.91-10.72t12.26-3.37V18.6c-2.68,0-4.56.51-5.65,1.51S169,22.86,169,25.34v3h7.89Z"/><path class="cls-1" d="M185.12,21.08a5.47,5.47,0,0,1-1.63-4,5.55,5.55,0,0,1,5.65-5.65,5.38,5.38,0,0,1,4,1.62,5.51,5.51,0,0,1,1.63,4,5.47,5.47,0,0,1-1.63,4,5.39,5.39,0,0,1-4,1.63A5.47,5.47,0,0,1,185.12,21.08Z"/><rect class="cls-1" x="184.66" y="28.35" width="8.82" height="42.64"/><path class="cls-1" d="M204.34,38.07a18.92,18.92,0,0,1,7.39-7.7,21.34,21.34,0,0,1,10.83-2.71q7.74,0,12.81,3.67a18.15,18.15,0,0,1,6.85,10.49H232.7a10,10,0,0,0-3.71-5,11,11,0,0,0-6.43-1.78,10.67,10.67,0,0,0-8.63,3.83q-3.21,3.82-3.21,10.72t3.21,10.75a10.64,10.64,0,0,0,8.63,3.87q7.66,0,10.14-6.73h9.52a19,19,0,0,1-7,10.33,20.56,20.56,0,0,1-12.69,3.83,21.07,21.07,0,0,1-10.83-2.75,19.21,19.21,0,0,1-7.39-7.74,24.12,24.12,0,0,1-2.67-11.56A24.13,24.13,0,0,1,204.34,38.07Z"/><path class="cls-1" d="M249.5,38.11A19.45,19.45,0,0,1,267,27.66a18.67,18.67,0,0,1,8.78,2,18,18,0,0,1,6,4.92v-6.2h8.9V71h-8.9V64.65a17.58,17.58,0,0,1-6.12,5,19.8,19.8,0,0,1-18.88-.81A20.11,20.11,0,0,1,249.5,61a24.28,24.28,0,0,1-2.67-11.49A23.57,23.57,0,0,1,249.5,38.11ZM279.91,42A12.83,12.83,0,0,0,275.15,37a12.51,12.51,0,0,0-6.35-1.7,12.49,12.49,0,0,0-11.1,6.54,15.24,15.24,0,0,0-1.82,7.62,15.92,15.92,0,0,0,1.82,7.74,12.78,12.78,0,0,0,4.8,5.07A12.29,12.29,0,0,0,268.8,64a12.51,12.51,0,0,0,6.35-1.7,12.74,12.74,0,0,0,4.76-5,15.71,15.71,0,0,0,1.82-7.7A15.51,15.51,0,0,0,279.91,42Z"/><path class="cls-1" d="M315.12,29.48a15.14,15.14,0,0,1,7.63-1.82v9.13H320.5c-3.46,0-6.07.88-7.85,2.63S310,44.22,310,48.55V71h-8.83V28.35H310v6.2A13.81,13.81,0,0,1,315.12,29.48Z"/><path class="cls-1" d="M330.71,17.21h9.6l-8.13,18.42H326Z"/><path class="cls-1" d="M346.55,69.87a15.81,15.81,0,0,1-6.31-5,12.36,12.36,0,0,1-2.47-7h9.13a6.21,6.21,0,0,0,2.59,4.52,9.37,9.37,0,0,0,5.92,1.82,10,10,0,0,0,5.77-1.43,4.33,4.33,0,0,0,2.05-3.68,3.8,3.8,0,0,0-2.29-3.56A43.22,43.22,0,0,0,353.71,53a71.57,71.57,0,0,1-7.82-2.55,13.77,13.77,0,0,1-5.22-3.79A10,10,0,0,1,338.46,40a10.46,10.46,0,0,1,2-6.23,13.46,13.46,0,0,1,5.76-4.45,21.6,21.6,0,0,1,8.63-1.62q7.28,0,11.72,3.67a13.2,13.2,0,0,1,4.76,10h-8.82a6.29,6.29,0,0,0-2.32-4.57,8.71,8.71,0,0,0-5.65-1.7,9.23,9.23,0,0,0-5.34,1.31,4.08,4.08,0,0,0-1.86,3.49,3.8,3.8,0,0,0,1.24,2.86,8.93,8.93,0,0,0,3,1.82q1.78.66,5.26,1.66a56,56,0,0,1,7.62,2.52,14.21,14.21,0,0,1,5.15,3.75,9.94,9.94,0,0,1,2.24,6.58,11.05,11.05,0,0,1-2,6.5,13.39,13.39,0,0,1-5.69,4.49,21.21,21.21,0,0,1-8.62,1.62A21.53,21.53,0,0,1,346.55,69.87Z"/></g></g></svg>