<svg xmlns="http://www.w3.org/2000/svg" viewBox="0 0 175.28 175.7"><g id="Capa_2" data-name="Capa 2"><g id="bien"><path d="M124,67.7H91l3.57-15.47a7,7,0,0,0-1.9-6.66,6.81,6.81,0,0,0-9.56.18l-23.51,22h0v56h55.82l15.67-38.2a6.71,6.71,0,0,0,.51-2.58V75.3A7.62,7.62,0,0,0,124,67.7Z" style="fill:#fff"/><rect x="43.64" y="67.7" width="11.86" height="56" style="fill:#fff"/><path d="M12.05,81.85a75.83,75.83,0,0,1,151.18,0h12.05A87.84,87.84,0,0,0,0,81.85Z" style="fill:#fff"/><path d="M163.23,93.85a75.83,75.83,0,0,1-151.18,0H0a87.84,87.84,0,0,0,175.28,0Z" style="fill:#fff"/></g></g></svg>