<svg xmlns="http://www.w3.org/2000/svg" viewBox="0 0 175.28 175.7"><g id="Capa_2" data-name="Capa 2"><g id="perosnas"><path d="M12.05,81.85a75.83,75.83,0,0,1,151.18,0h12.05A87.84,87.84,0,0,0,0,81.85Z" style="fill:#fff"/><path d="M163.23,93.85a75.83,75.83,0,0,1-151.18,0H0a87.84,87.84,0,0,0,175.28,0Z" style="fill:#fff"/><path d="M87.64,75.7h0a20,20,0,0,1,20,20v32a0,0,0,0,1,0,0h-40a0,0,0,0,1,0,0v-32A20,20,0,0,1,87.64,75.7Z" style="fill:#fff"/><circle cx="87.64" cy="63.7" r="16" style="fill:#fff"/><path d="M47.64,75.7h0a16,16,0,0,1,16,16v32a0,0,0,0,1,0,0h-32a0,0,0,0,1,0,0v-32A16,16,0,0,1,47.64,75.7Z" style="fill:#fff"/><circle cx="47.64" cy="65.7" r="14" style="fill:#fff"/><path d="M127.64,75.7h0a16,16,0,0,1,16,16v32a0,0,0,0,1,0,0h-32a0,0,0,0,1,0,0v-32A16,16,0,0,1,127.64,75.7Z" style="fill:#fff"/><circle cx="127.64" cy="65.7" r="14" style="fill:#fff"/></g></g></svg>