<svg xmlns="http://www.w3.org/2000/svg" viewBox="0 0 175.28 175.7"><g id="Capa_2" data-name="Capa 2"><g id="perosnas"><path d="M100.13,90.64c6.53-5.39,9.51-14.92,4.92-24.57a16.82,16.82,0,0,0-7.86-7.92,22,22,0,0,0-9.55-2.27A19.63,19.63,0,0,0,75.15,90.64a24.48,24.48,0,0,0-12,21v24.47h48.94V111.69A24.46,24.46,0,0,0,100.13,90.64Z" style="fill:#fff"/><path d="M62,75.51A25.56,25.56,0,0,1,71.08,56c-.22-.56-.46-1.12-.72-1.69a16.8,16.8,0,0,0-7.87-7.92c-14.7-7.08-29.17,3.45-29.17,17.36a19.62,19.62,0,0,0,7.13,15.14,24.45,24.45,0,0,0-12,21v24.47h28.7V111.69A30.66,30.66,0,0,1,66.4,89.85,25.55,25.55,0,0,1,62,75.51Z" style="fill:#fff"/><path d="M133.88,78.87c6.53-5.4,9.51-14.93,4.92-24.58a16.82,16.82,0,0,0-7.86-7.92c-11.47-5.52-22.79-.33-27.22,8.81a22.89,22.89,0,0,1,6.75,8.32,26.41,26.41,0,0,1-1.59,26.36,30.63,30.63,0,0,1,9.23,21.83v12.69h27.75V99.91A24.45,24.45,0,0,0,133.88,78.87Z" style="fill:#fff"/><path d="M12.05,81.85a75.83,75.83,0,0,1,151.18,0h12.05A87.84,87.84,0,0,0,0,81.85Z" style="fill:#fff"/><path d="M163.23,93.85a75.83,75.83,0,0,1-151.18,0H0a87.84,87.84,0,0,0,175.28,0Z" style="fill:#fff"/></g></g></svg>