<svg xmlns="http://www.w3.org/2000/svg" viewBox="0 0 175.28 175.7"><g id="Capa_2" data-name="Capa 2"><g id="tiempo"><path d="M12.05,81.85a75.83,75.83,0,0,1,151.18,0h12.05A87.84,87.84,0,0,0,0,81.85Z" style="fill:#fff"/><path d="M163.23,93.85a75.83,75.83,0,0,1-151.18,0H0a87.84,87.84,0,0,0,175.28,0Z" style="fill:#fff"/><polygon points="63.64 59.7 111.64 59.7 127.64 59.7 127.64 47.7 111.64 47.7 63.64 47.7 47.64 47.7 47.64 59.7 52.57 59.7 63.64 59.7" style="fill:#fff"/><path d="M63.64,67.62a24,24,0,0,0,10.79,20,24,24,0,0,0-10.79,20v4h48v-4a24,24,0,0,0-10.79-20,24,24,0,0,0,10.79-20V63.7h-48Z" style="fill:#fff"/><polygon points="111.64 115.7 63.64 115.7 52.5 115.7 47.64 115.7 47.64 127.7 127.64 127.7 127.64 115.7 127.64 115.7 111.64 115.7" style="fill:#fff"/></g></g></svg>