<svg xmlns="http://www.w3.org/2000/svg" viewBox="0 0 175.28 175.7"><g id="Capa_2" data-name="Capa 2"><g id="tiempo"><path d="M12.05,81.85a75.83,75.83,0,0,1,151.18,0h12.05A87.84,87.84,0,0,0,0,81.85Z" style="fill:#fff"/><path d="M163.23,93.85a75.83,75.83,0,0,1-151.18,0H0a87.84,87.84,0,0,0,175.28,0Z" style="fill:#fff"/><rect x="47.64" y="47.7" width="80" height="8" style="fill:#fff"/><rect x="47.64" y="119.7" width="80" height="8" style="fill:#fff"/><path d="M63.64,83.7h48a0,0,0,0,1,0,0v12a24,24,0,0,1-24,24h0a24,24,0,0,1-24-24v-12a0,0,0,0,1,0,0Z" transform="translate(175.28 203.39) rotate(180)" style="fill:#fff"/><path d="M63.64,55.7h48a0,0,0,0,1,0,0v12a24,24,0,0,1-24,24h0a24,24,0,0,1-24-24v-12a0,0,0,0,1,0,0Z" style="fill:#fff"/></g></g></svg>