<svg xmlns="http://www.w3.org/2000/svg" viewBox="0 0 175.28 175.7"><g id="Capa_2" data-name="Capa 2"><g id="tiempo"><path d="M12.05,81.85a75.83,75.83,0,0,1,151.18,0h12.05A87.84,87.84,0,0,0,0,81.85Z" style="fill:#fff"/><path d="M163.23,93.85a75.83,75.83,0,0,1-151.18,0H0a87.84,87.84,0,0,0,175.28,0Z" style="fill:#fff"/><path d="M111.64,67.7v-12h16v-8h-80v8h16v12a24,24,0,0,0,10.74,20,24,24,0,0,0-10.74,20v12h-16v8h80v-8h-16v-12a24,24,0,0,0-10.74-20A24,24,0,0,0,111.64,67.7Z" style="fill:#fff"/></g></g></svg>