<svg xmlns="http://www.w3.org/2000/svg" viewBox="0 0 175.7 175.7"><defs><style>.cls-1{fill:#fff;}.cls-2{fill:#01b3bf;}</style></defs><g id="Capa_2" data-name="Capa 2"><g id="face"><path class="cls-1" d="M87.85,12A75.85,75.85,0,1,1,12,87.85,75.94,75.94,0,0,1,87.85,12m0-12A87.85,87.85,0,1,0,175.7,87.85,87.85,87.85,0,0,0,87.85,0Z"/><path class="cls-2" d="M113.92,93.64,117,74.33H98.47V60.81c0-5.4,1.93-9.65,10.43-9.65h8.88V33.39a105,105,0,0,0-15.45-1.54c-15.83,0-27,9.65-27,27V74.33H57.92V93.64H75.3v49.05a58.43,58.43,0,0,0,23.17,0v-49Z"/></g></g></svg>