<svg xmlns="http://www.w3.org/2000/svg" viewBox="0 0 176 176"><g id="Capa_2" data-name="Capa 2"><g id="face"><path d="M176,88A88,88,0,1,0,74.25,174.93V113.44H51.91V88H74.25V68.61c0-22,13.14-34.23,33.24-34.23a136,136,0,0,1,19.7,1.71V57.75h-11.1c-10.93,0-14.34,6.78-14.34,13.74V88h24.41l-3.91,25.44h-20.5v61.49A88,88,0,0,0,176,88Z"/><path d="M122.25,113.44,126.16,88H101.75V71.49c0-7,3.41-13.74,14.34-13.74h11.1V36.09a136,136,0,0,0-19.7-1.71c-20.1,0-33.24,12.18-33.24,34.23V88H51.91v25.44H74.25v61.49a88.88,88.88,0,0,0,27.5,0V113.44Z" style="fill:#fff"/></g></g></svg>