<svg xmlns="http://www.w3.org/2000/svg" viewBox="0 0 175.4 175.7"><g id="Capa_2" data-name="Capa 2"><g id="Capa_1-2" data-name="Capa 1"><g id="mapa"><path d="M87.7,31.9A37.3,37.3,0,0,0,50.4,69.2c0,37.4,37.3,74.7,37.3,74.7s37.3-42,37.3-74.7A37.3,37.3,0,0,0,87.7,31.9Zm0,60.7A23.35,23.35,0,1,1,111,69.2,23.26,23.26,0,0,1,87.7,92.6Z" style="fill:#1c1f3e"/></g><path d="M12,81.9a75.9,75.9,0,0,1,151.3,0h12.1A87.91,87.91,0,0,0,0,81.9Z" style="fill:#1c1f3e"/><path d="M163.3,93.9a75.84,75.84,0,0,1-151.2,0H.1a87.81,87.81,0,0,0,175.2,0Z" style="fill:#1c1f3e"/></g></g></svg>