<svg xmlns="http://www.w3.org/2000/svg" viewBox="0 0 176 176"><defs><style>.cls-1{fill:#1c1f3e;}.cls-2{fill:#01b3bf;}.cls-3{fill:#fff;}</style></defs><g id="Capa_2" data-name="Capa 2"><g id="mapa"><path class="cls-1" d="M88,12A76,76,0,1,1,12,88,76.08,76.08,0,0,1,88,12M88,0a88,88,0,1,0,88,88A88,88,0,0,0,88,0Z"/><path class="cls-2" d="M88,32A37.33,37.33,0,0,0,50.67,69.33C50.67,106.67,88,144,88,144s37.33-42,37.33-74.67A37.33,37.33,0,0,0,88,32Z"/><circle class="cls-3" cx="88" cy="69.33" r="23.33"/></g></g></svg>