<svg xmlns="http://www.w3.org/2000/svg" viewBox="0 0 175.28 175.7"><g id="Capa_2" data-name="Capa 2"><g id="mensaje"><path d="M12.05,81.85a75.83,75.83,0,0,1,151.18,0h12.05A87.84,87.84,0,0,0,0,81.85Z" style="fill:#fff"/><path d="M163.23,93.85a75.83,75.83,0,0,1-151.18,0H0a87.84,87.84,0,0,0,175.28,0Z" style="fill:#fff"/><path d="M118.84,47.7H35.64v84l12-12h92v-72Zm8.8,19.2v40.8h-80v-48h80Z" style="fill:#fff"/><path d="M71.64,83.7a6,6,0,0,0-12,0v6h12Z" style="fill:#fff"/><path d="M87.64,77.7h0a6,6,0,0,0-6,6v6h12v-6A6,6,0,0,0,87.64,77.7Z" style="fill:#fff"/><path d="M115.64,83.7a6,6,0,0,0-12,0v6h12Z" style="fill:#fff"/></g></g></svg>