<svg xmlns="http://www.w3.org/2000/svg" viewBox="0 0 175.28 175.7"><g id="Capa_2" data-name="Capa 2"><g id="mensaje"><path d="M12.05,81.85a75.83,75.83,0,0,1,151.18,0h12.05A87.84,87.84,0,0,0,0,81.85Z" style="fill:#fff"/><path d="M163.23,93.85a75.83,75.83,0,0,1-151.18,0H0a87.84,87.84,0,0,0,175.28,0Z" style="fill:#fff"/><polygon points="43.64 55.7 55.64 55.7 55.64 119.7 43.64 131.7 43.64 55.7" style="fill:#fff"/><rect x="119.64" y="55.7" width="12" height="64" style="fill:#fff"/><rect x="81.69" y="17.75" width="12" height="87.89" transform="translate(149.39 -26) rotate(90)" style="fill:#fff"/><rect x="81.64" y="69.7" width="12" height="88" transform="translate(201.34 26.06) rotate(90)" style="fill:#fff"/><rect x="63.64" y="83.7" width="8" height="8" style="fill:#fff"/><rect x="83.64" y="83.7" width="8" height="8" style="fill:#fff"/><rect x="103.64" y="83.7" width="8" height="8" style="fill:#fff"/></g></g></svg>