<svg xmlns="http://www.w3.org/2000/svg" viewBox="0 0 176 176"><defs><style>.cls-1{fill:#01b3bf;}.cls-2{fill:#1c1f3e;}</style></defs><g id="Capa_2" data-name="Capa 2"><g id="telefono"><path class="cls-1" d="M127.93,109.4c-.72-5.59-8.85-8.56-15.48-9.67A12.28,12.28,0,0,0,101.89,103c-7.25,7-11.6,1.92-19.33-4l-5.2-4.27c-6.9-6.9-12.51-10.55-6.49-18.65a12.29,12.29,0,0,0,1.9-10.89c-2-6.43-6-14.11-11.59-14.11-10.09,0-26.91,20.18,7.1,54.18l5,4.11C111.4,138.69,129.24,119.41,127.93,109.4Z"/><path class="cls-2" d="M88,12A76,76,0,1,1,12,88,76.08,76.08,0,0,1,88,12M88,0a88,88,0,1,0,88,88A88,88,0,0,0,88,0Z"/></g></g></svg>