<svg xmlns="http://www.w3.org/2000/svg" viewBox="0 0 176.96 177.81"><g id="Capa_2" data-name="Capa 2"><g id="whats"><g id="WA_Logo" data-name="WA Logo"><path d="M151.18,25.84A88.13,88.13,0,0,0,12.5,132.16L0,177.81l46.71-12.25a88.1,88.1,0,0,0,42.11,10.73h0A88.16,88.16,0,0,0,151.18,25.84ZM88.85,161.41h0A73.17,73.17,0,0,1,51.55,151.2l-2.68-1.59-27.71,7.27,7.39-27-1.74-2.77a73.24,73.24,0,1,1,62,34.32ZM129,106.56c-2.2-1.11-13-6.43-15-7.17s-3.49-1.1-5,1.11-5.69,7.16-7,8.63-2.56,1.65-4.77.55a60.17,60.17,0,0,1-17.7-10.93A66.54,66.54,0,0,1,67.33,83.5c-1.28-2.2-.13-3.4,1-4.49s2.2-2.58,3.3-3.86a15,15,0,0,0,2.2-3.67,4,4,0,0,0-.18-3.86c-.55-1.1-5-11.94-6.79-16.35s-3.6-3.71-4.95-3.78-2.76-.07-4.22-.07a8.08,8.08,0,0,0-5.87,2.75c-2,2.2-7.71,7.53-7.71,18.37s7.89,21.3,9,22.77S68.59,115,90.68,124.56a126.62,126.62,0,0,0,12.55,4.63,30.23,30.23,0,0,0,13.87.88c4.23-.64,13-5.33,14.86-10.47s1.83-9.55,1.28-10.47S131.22,107.66,129,106.56Z" style="fill:#0b0b0b;fill-rule:evenodd"/></g></g></g></svg>