<svg xmlns="http://www.w3.org/2000/svg" viewBox="0 0 180 180"><defs><style>.cls-1{fill:#01b3bf;}.cls-2{fill:#1c1f3e;}</style></defs><g id="Capa_2" data-name="Capa 2"><g id="whats"><path class="cls-1" d="M131.93,109.4c-.72-5.59-8.85-8.56-15.48-9.67A12.28,12.28,0,0,0,105.89,103c-7.25,7-11.6,1.92-19.33-4l-5.2-4.27c-6.9-6.9-12.51-10.55-6.49-18.65a12.29,12.29,0,0,0,1.9-10.89c-2-6.43-6-14.11-11.59-14.11-10.09,0-26.91,20.18,7.1,54.18l5,4.11C115.4,138.69,133.24,119.41,131.93,109.4Z"/><path class="cls-2" d="M92,12A76,76,0,1,1,53.8,153.71L49.11,151,44,152.7,19,161l8.33-25L29,130.89l-2.73-4.69A76,76,0,0,1,92,12M92,0A88,88,0,0,0,15.92,132.24L0,180l47.76-15.92A88,88,0,1,0,92,0Z"/></g></g></svg>